<svg width="56" height="56" viewBox="0 0 56 56" fill="none" xmlns="http://www.w3.org/2000/svg">
<circle cx="28" cy="28" r="28" fill="#C859FF"/>
<path d="M35.1869 25.5782C35.1869 27.4787 34.6233 29.3366 33.5674 30.9169C32.5115 32.4971 31.0107 33.7288 29.2548 34.4561C27.499 35.1834 25.5668 35.3737 23.7028 35.0029C21.8388 34.6321 20.1265 33.7169 18.7826 32.373C17.4387 31.0291 16.5235 29.3169 16.1528 27.4529C15.782 25.5888 15.9723 23.6567 16.6996 21.9008C17.4269 20.1449 18.6586 18.6442 20.2388 17.5883C21.8191 16.5324 23.6769 15.9688 25.5775 15.9688C28.1252 15.9717 30.5677 16.985 32.3692 18.7865C34.1706 20.588 35.184 23.0305 35.1869 25.5782ZM43.7795 43.7812C43.5392 44.0215 43.2133 44.1565 42.8734 44.1565C42.5336 44.1565 42.2077 44.0215 41.9674 43.7812L35.045 36.8588C32.1334 39.3032 28.3905 40.5293 24.5969 40.2814C20.8034 40.0334 17.2519 38.3306 14.6832 35.528C12.1146 32.7254 10.7269 29.0394 10.8097 25.2386C10.8926 21.4378 12.4394 17.8158 15.1277 15.1277C17.816 12.4396 21.4382 10.8931 25.239 10.8106C29.0398 10.7281 32.7257 12.1161 35.5281 14.685C38.3304 17.2539 40.033 20.8055 40.2806 24.5991C40.5282 28.3927 39.3017 32.1354 36.857 35.0468L43.7795 41.9693C44.0197 42.2095 44.1547 42.5354 44.1547 42.8752C44.1547 43.215 44.0197 43.5409 43.7795 43.7812ZM25.5775 37.7501C27.9849 37.7501 30.3382 37.0362 32.3398 35.6987C34.3415 34.3613 35.9016 32.4603 36.8228 30.2362C37.7441 28.012 37.9851 25.5647 37.5155 23.2036C37.0458 20.8425 35.8866 18.6736 34.1843 16.9714C32.482 15.2691 30.3132 14.1098 27.9521 13.6402C25.591 13.1705 23.1436 13.4116 20.9195 14.3328C18.6954 15.2541 16.7944 16.8142 15.4569 18.8159C14.1195 20.8175 13.4056 23.1708 13.4056 25.5782C13.4093 28.8052 14.6928 31.8991 16.9747 34.181C19.2566 36.4628 22.3504 37.7464 25.5775 37.7501Z" fill="white"/>
</svg>
