<svg width="68" height="68" viewBox="0 0 68 68" fill="none" xmlns="http://www.w3.org/2000/svg">
<circle cx="34" cy="34" r="34" fill="#2FB866"/>
<path fill-rule="evenodd" clip-rule="evenodd" d="M43.3333 35.1067C43.3333 34.3703 43.9303 33.7733 44.6667 33.7733L44.6666 33.7733C45.403 33.7733 46 34.3703 46 35.1067V42.5333C45.9927 44.4449 44.4448 45.9927 42.5333 46H25.4666C23.5551 45.9927 22.0073 44.4448 22 42.5333V25.4667C22.0073 23.5551 23.5551 22.0073 25.4667 22H38.2267C38.963 22 39.56 22.597 39.56 23.3333C39.56 24.0697 38.963 24.6667 38.2267 24.6667H25.4667C25.0248 24.6667 24.6667 25.0248 24.6667 25.4667V42.5333C24.6667 42.9752 25.0248 43.3333 25.4667 43.3333H42.5333C42.9752 43.3333 43.3333 42.9752 43.3333 42.5333V35.1067ZM30.4105 32.7665C30.9029 32.219 31.746 32.1743 32.2935 32.6667L34.3068 34.7734L42.3735 26.4267C42.889 25.8965 43.7366 25.8846 44.2668 26.4C44.797 26.9155 44.8089 27.7632 44.2935 28.2934L35.2535 37.6267C35.0008 37.8845 34.6544 38.0288 34.2935 38.0267C33.9306 38.0253 33.5839 37.876 33.3335 37.6134L30.3735 34.5067C29.9533 33.9975 29.969 33.2574 30.4105 32.7665Z" fill="white"/>
</svg>
