<svg width="68" height="68" viewBox="0 0 68 68" fill="none" xmlns="http://www.w3.org/2000/svg">
<circle cx="34" cy="34" r="34" fill="#1C2129"/>
<path fill-rule="evenodd" clip-rule="evenodd" d="M34 23.3333C33.2637 23.3333 32.6667 23.9302 32.6667 24.6666V44.6666C32.6667 45.403 33.2637 45.9999 34 45.9999C34.7364 45.9999 35.3334 45.403 35.3334 44.6666V24.6666C35.3334 23.9302 34.7364 23.3333 34 23.3333ZM43.3334 33.9999C42.597 33.9999 42 34.5969 42 35.3333V44.6666C42 45.403 42.597 45.9999 43.3334 45.9999C44.0698 45.9999 44.6667 45.403 44.6667 44.6666V35.3333C44.6667 34.5969 44.0698 33.9999 43.3334 33.9999ZM23.3334 29.9999C23.3334 29.2635 23.9303 28.6666 24.6667 28.6666C25.4031 28.6666 26 29.2635 26 29.9999V44.6666C26 45.403 25.4031 45.9999 24.6667 45.9999C23.9303 45.9999 23.3334 45.403 23.3334 44.6666V29.9999Z" fill="white"/>
</svg>
