<svg width="68" height="68" viewBox="0 0 68 68" fill="none" xmlns="http://www.w3.org/2000/svg">
<circle cx="34" cy="34" r="34" fill="#F2902B"/>
<path fill-rule="evenodd" clip-rule="evenodd" d="M34 20.6667C26.6362 20.6667 20.6666 26.6363 20.6666 34.0001C20.6666 41.3639 26.6362 47.3334 34 47.3334C41.3638 47.3334 47.3333 41.3639 47.3333 34.0001C47.3333 26.6363 41.3638 20.6667 34 20.6667V20.6667ZM34 23.3334H34C34.8034 23.3387 35.6038 23.4326 36.3866 23.6134L36.3866 23.6134C36.1549 24.1366 35.7976 24.5946 35.3466 24.9467C35.0533 25.1734 34.7333 25.3601 34.4133 25.5601C33.4003 26.0589 32.5461 26.8299 31.9466 27.7867L31.9466 27.7867C31.2899 29.1555 31.0048 30.673 31.12 32.1867C31.12 34.0001 31.12 35.0667 29.8533 36.0134C28.0266 37.4401 25.24 36.6401 23.5066 35.9201L23.5066 35.9201C23.3933 35.2863 23.3353 34.6439 23.3333 34.0001V34.0001C23.3333 28.1091 28.1089 23.3334 34 23.3334L34 23.3334ZM24.6666 39.0667H24.6666C25.5379 39.2932 26.4332 39.4141 27.3333 39.4267H27.3333C28.8394 39.4681 30.3152 38.9982 31.52 38.0934C33.8 36.3067 33.8 34.0134 33.8 32.1734L33.8 32.1734C33.6988 31.1084 33.8685 30.0352 34.2933 29.0534C34.6792 28.5279 35.1933 28.1102 35.7866 27.84V27.84C36.2105 27.5923 36.6201 27.3208 37.0133 27.0267C37.8419 26.3722 38.4853 25.5128 38.88 24.5334L38.88 24.5334C40.7559 25.4932 42.3055 26.9871 43.3333 28.8267C41.4266 29.0934 38.72 29.72 38.1866 32.2V32.2C38.0662 32.7926 38.0037 33.3954 38 34V34C38.0431 34.6759 37.9099 35.3513 37.6133 35.96L37.48 36.1867C36.6133 37.6267 35.64 39.2667 36.96 41.52C37.12 41.8 37.2933 42.0667 37.4666 42.3334C37.8215 42.7433 38.0608 43.2403 38.16 43.7734C36.8486 44.3514 35.433 44.6554 34 44.6667C30.0989 44.6472 26.5196 42.4997 24.6666 39.0667H24.6666ZM40.5719 42.4266C40.3413 41.8942 40.06 41.3852 39.7319 40.9066C39.5853 40.6933 39.4386 40.4799 39.3053 40.2533C38.7853 39.3466 38.9719 38.9199 39.8119 37.5866L39.9453 37.3599L39.9453 37.3599C40.4678 36.3627 40.7163 35.2446 40.6653 34.1199V34.1199C40.6639 33.6727 40.7041 33.2263 40.7853 32.7865C40.9986 31.8132 43.0653 31.5465 44.3453 31.4532C45.4028 35.5649 43.9018 39.9107 40.532 42.4932L40.5719 42.4266Z" fill="white"/>
</svg>
